<mxfile host="app.diagrams.net" modified="2024-01-15T14:58:58.714Z" agent="Mozilla/5.0 (Windows NT 10.0; Win64; x64) AppleWebKit/537.36 (KHTML, like Gecko) Chrome/120.0.0.0 Safari/537.36" etag="I5A5HMaik68FAeFY9b-b" version="22.1.17" type="device">
  <diagram name="Page-1" id="pcmUAop3vFKxu8YiNvT2">
    <mxGraphModel dx="1050" dy="579" grid="1" gridSize="10" guides="1" tooltips="1" connect="1" arrows="1" fold="1" page="1" pageScale="1" pageWidth="850" pageHeight="1100" math="0" shadow="0">
      <root>
        <mxCell id="0" />
        <mxCell id="1" parent="0" />
        <mxCell id="XcVQMIOSL3GUF2yeqg58-4" value="/_/&lt;br&gt;rootLayout holds global state&lt;br&gt;&lt;div style=&quot;text-align: left;&quot;&gt;also showNav = False by default&lt;/div&gt;" style="text;html=1;align=center;verticalAlign=middle;resizable=0;points=[];autosize=1;fontSize=18;fillColor=none;strokeColor=default;" parent="1" vertex="1">
          <mxGeometry x="245" y="20" width="280" height="80" as="geometry" />
        </mxCell>
        <mxCell id="XcVQMIOSL3GUF2yeqg58-5" value="in HomePage&amp;nbsp; with admin_auth key set&lt;br&gt;in local storage go to #/editor&lt;br&gt;else go to #/login by making navbar hiden" style="text;html=1;align=center;verticalAlign=middle;resizable=0;points=[];autosize=1;strokeColor=default;fillColor=none;fontSize=18;" parent="1" vertex="1">
          <mxGeometry x="15" y="220" width="360" height="80" as="geometry" />
        </mxCell>
        <mxCell id="XcVQMIOSL3GUF2yeqg58-22" value="#/login" style="text;html=1;align=center;verticalAlign=middle;resizable=0;points=[];autosize=1;strokeColor=default;fillColor=none;" parent="1" vertex="1">
          <mxGeometry x="425" y="380" width="60" height="30" as="geometry" />
        </mxCell>
        <mxCell id="XcVQMIOSL3GUF2yeqg58-23" value="#/logs" style="text;html=1;align=center;verticalAlign=middle;resizable=0;points=[];autosize=1;strokeColor=default;fillColor=none;" parent="1" vertex="1">
          <mxGeometry x="590" y="380" width="60" height="30" as="geometry" />
        </mxCell>
        <mxCell id="XcVQMIOSL3GUF2yeqg58-31" value="" style="group" parent="1" vertex="1" connectable="0">
          <mxGeometry x="180" y="90" width="410" height="80" as="geometry" />
        </mxCell>
        <mxCell id="XcVQMIOSL3GUF2yeqg58-28" value="" style="endArrow=none;html=1;rounded=0;" parent="XcVQMIOSL3GUF2yeqg58-31" edge="1">
          <mxGeometry width="50" height="50" relative="1" as="geometry">
            <mxPoint y="130" as="sourcePoint" />
            <mxPoint x="410" y="160" as="targetPoint" />
            <Array as="points">
              <mxPoint y="80" />
              <mxPoint x="205" y="80" />
              <mxPoint x="230.625" y="80" />
              <mxPoint x="410" y="80" />
            </Array>
          </mxGeometry>
        </mxCell>
        <mxCell id="XcVQMIOSL3GUF2yeqg58-30" value="" style="endArrow=none;html=1;rounded=0;" parent="XcVQMIOSL3GUF2yeqg58-31" edge="1">
          <mxGeometry width="50" height="50" relative="1" as="geometry">
            <mxPoint x="205" y="80" as="sourcePoint" />
            <mxPoint x="205" as="targetPoint" />
          </mxGeometry>
        </mxCell>
        <mxCell id="XcVQMIOSL3GUF2yeqg58-34" value="" style="endArrow=none;html=1;rounded=0;exitX=0.44;exitY=0.026;exitDx=0;exitDy=0;exitPerimeter=0;entryX=0.91;entryY=0.027;entryDx=0;entryDy=0;entryPerimeter=0;" parent="1" source="XcVQMIOSL3GUF2yeqg58-22" target="0FIjLZLeyplSgT3ngLBf-10" edge="1">
          <mxGeometry width="50" height="50" relative="1" as="geometry">
            <mxPoint x="450" y="360" as="sourcePoint" />
            <mxPoint x="720" y="360" as="targetPoint" />
            <Array as="points">
              <mxPoint x="450" y="310" />
              <mxPoint x="655" y="310" />
              <mxPoint x="680.625" y="310" />
              <mxPoint x="720" y="310" />
            </Array>
          </mxGeometry>
        </mxCell>
        <mxCell id="XcVQMIOSL3GUF2yeqg58-35" value="" style="endArrow=none;html=1;rounded=0;" parent="1" edge="1">
          <mxGeometry width="50" height="50" relative="1" as="geometry">
            <mxPoint x="590" y="310" as="sourcePoint" />
            <mxPoint x="590" y="250" as="targetPoint" />
          </mxGeometry>
        </mxCell>
        <mxCell id="XcVQMIOSL3GUF2yeqg58-36" value="" style="endArrow=none;html=1;rounded=0;exitX=0.5;exitY=0.011;exitDx=0;exitDy=0;exitPerimeter=0;entryX=0.088;entryY=1.067;entryDx=0;entryDy=0;entryPerimeter=0;" parent="1" source="0FIjLZLeyplSgT3ngLBf-7" target="0FIjLZLeyplSgT3ngLBf-10" edge="1">
          <mxGeometry width="50" height="50" relative="1" as="geometry">
            <mxPoint x="539.44" y="360.05999999999995" as="sourcePoint" />
            <mxPoint x="540" y="310" as="targetPoint" />
          </mxGeometry>
        </mxCell>
        <mxCell id="XcVQMIOSL3GUF2yeqg58-37" value="#/settings" style="text;html=1;align=center;verticalAlign=middle;resizable=0;points=[];autosize=1;strokeColor=default;fillColor=none;" parent="1" vertex="1">
          <mxGeometry x="685" y="380" width="70" height="30" as="geometry" />
        </mxCell>
        <mxCell id="XcVQMIOSL3GUF2yeqg58-38" value="subpaths like mail&lt;br&gt;,admins,etc" style="text;html=1;align=center;verticalAlign=middle;resizable=0;points=[];autosize=1;strokeColor=default;fillColor=none;" parent="1" vertex="1">
          <mxGeometry x="670" y="460" width="120" height="40" as="geometry" />
        </mxCell>
        <mxCell id="XcVQMIOSL3GUF2yeqg58-39" value="" style="endArrow=none;html=1;rounded=0;entryX=0.504;entryY=1.076;entryDx=0;entryDy=0;entryPerimeter=0;exitX=0.421;exitY=0.038;exitDx=0;exitDy=0;exitPerimeter=0;" parent="1" source="XcVQMIOSL3GUF2yeqg58-38" target="XcVQMIOSL3GUF2yeqg58-37" edge="1">
          <mxGeometry width="50" height="50" relative="1" as="geometry">
            <mxPoint x="300" y="420" as="sourcePoint" />
            <mxPoint x="500" y="400" as="targetPoint" />
          </mxGeometry>
        </mxCell>
        <mxCell id="0FIjLZLeyplSgT3ngLBf-3" value="" style="endArrow=none;html=1;rounded=0;entryX=0.457;entryY=1.02;entryDx=0;entryDy=0;entryPerimeter=0;" parent="1" target="XcVQMIOSL3GUF2yeqg58-22" edge="1">
          <mxGeometry width="50" height="50" relative="1" as="geometry">
            <mxPoint x="160" y="480" as="sourcePoint" />
            <mxPoint x="450" y="500" as="targetPoint" />
            <Array as="points">
              <mxPoint x="160" y="440" />
              <mxPoint x="452" y="440" />
            </Array>
          </mxGeometry>
        </mxCell>
        <mxCell id="0FIjLZLeyplSgT3ngLBf-4" value="if&amp;nbsp; 200 ok go to #/editor with setting admin_auth key in localstorage and making basic fetch request and making navShow= true&lt;br&gt;else&amp;nbsp; go to #/login" style="rounded=0;whiteSpace=wrap;html=1;align=left;" parent="1" vertex="1">
          <mxGeometry x="10" y="480" width="270" height="70" as="geometry" />
        </mxCell>
        <mxCell id="0FIjLZLeyplSgT3ngLBf-7" value="#/editor" style="text;html=1;align=center;verticalAlign=middle;resizable=0;points=[];autosize=1;strokeColor=default;fillColor=none;" parent="1" vertex="1">
          <mxGeometry x="510" y="380" width="60" height="30" as="geometry" />
        </mxCell>
        <mxCell id="0FIjLZLeyplSgT3ngLBf-8" value="" style="endArrow=none;html=1;rounded=0;entryX=0.455;entryY=1;entryDx=0;entryDy=0;entryPerimeter=0;" parent="1" source="XcVQMIOSL3GUF2yeqg58-23" target="0FIjLZLeyplSgT3ngLBf-10" edge="1">
          <mxGeometry width="50" height="50" relative="1" as="geometry">
            <mxPoint x="624" y="360" as="sourcePoint" />
            <mxPoint x="620" y="310" as="targetPoint" />
          </mxGeometry>
        </mxCell>
        <mxCell id="0FIjLZLeyplSgT3ngLBf-10" value="make navShow = True" style="text;html=1;strokeColor=default;fillColor=none;align=center;verticalAlign=middle;whiteSpace=wrap;rounded=0;" parent="1" vertex="1">
          <mxGeometry x="520" y="330" width="220" height="30" as="geometry" />
        </mxCell>
        <mxCell id="0FIjLZLeyplSgT3ngLBf-12" value="" style="endArrow=none;html=1;rounded=0;" parent="1" source="0FIjLZLeyplSgT3ngLBf-10" edge="1">
          <mxGeometry width="50" height="50" relative="1" as="geometry">
            <mxPoint x="610" y="350" as="sourcePoint" />
            <mxPoint x="630" y="310" as="targetPoint" />
          </mxGeometry>
        </mxCell>
        <mxCell id="0FIjLZLeyplSgT3ngLBf-13" value="" style="endArrow=none;html=1;rounded=0;exitX=0.123;exitY=0.039;exitDx=0;exitDy=0;exitPerimeter=0;" parent="1" source="0FIjLZLeyplSgT3ngLBf-10" edge="1">
          <mxGeometry width="50" height="50" relative="1" as="geometry">
            <mxPoint x="600" y="340" as="sourcePoint" />
            <mxPoint x="550" y="310" as="targetPoint" />
          </mxGeometry>
        </mxCell>
        <mxCell id="0FIjLZLeyplSgT3ngLBf-14" value="" style="endArrow=none;html=1;rounded=0;entryX=0.905;entryY=1.009;entryDx=0;entryDy=0;entryPerimeter=0;exitX=0.495;exitY=0.037;exitDx=0;exitDy=0;exitPerimeter=0;" parent="1" source="XcVQMIOSL3GUF2yeqg58-37" target="0FIjLZLeyplSgT3ngLBf-10" edge="1">
          <mxGeometry width="50" height="50" relative="1" as="geometry">
            <mxPoint x="650" y="350" as="sourcePoint" />
            <mxPoint x="650" y="330" as="targetPoint" />
          </mxGeometry>
        </mxCell>
        <mxCell id="dDf7dUf55q2WyE8pzbko-1" value="index has &amp;lt;Nav&amp;gt; component which according to showNav shows the navbar within outlet of rootlayout" style="rounded=0;whiteSpace=wrap;html=1;" parent="1" vertex="1">
          <mxGeometry x="280" y="120" width="210" height="80" as="geometry" />
        </mxCell>
        <mxCell id="dDf7dUf55q2WyE8pzbko-2" value="make navShow = False" style="text;html=1;strokeColor=default;fillColor=none;align=center;verticalAlign=middle;whiteSpace=wrap;rounded=0;" parent="1" vertex="1">
          <mxGeometry x="260" y="380" width="130" height="30" as="geometry" />
        </mxCell>
        <mxCell id="dDf7dUf55q2WyE8pzbko-3" value="" style="endArrow=classic;html=1;rounded=0;exitX=0.022;exitY=0.534;exitDx=0;exitDy=0;exitPerimeter=0;entryX=1;entryY=0.5;entryDx=0;entryDy=0;" parent="1" source="XcVQMIOSL3GUF2yeqg58-22" target="dDf7dUf55q2WyE8pzbko-2" edge="1">
          <mxGeometry width="50" height="50" relative="1" as="geometry">
            <mxPoint x="430" y="380" as="sourcePoint" />
            <mxPoint x="480" y="330" as="targetPoint" />
          </mxGeometry>
        </mxCell>
      </root>
    </mxGraphModel>
  </diagram>
</mxfile>
